<?xml version="1.0" encoding="UTF-8" standalone="no"?>
<!-- Created with Inkscape (http://www.inkscape.org/) -->
<svg
   xmlns:dc="http://purl.org/dc/elements/1.1/"
   xmlns:cc="http://web.resource.org/cc/"
   xmlns:rdf="http://www.w3.org/1999/02/22-rdf-syntax-ns#"
   xmlns:svg="http://www.w3.org/2000/svg"
   xmlns="http://www.w3.org/2000/svg"
   xmlns:xlink="http://www.w3.org/1999/xlink"
   xmlns:sodipodi="http://sodipodi.sourceforge.net/DTD/sodipodi-0.dtd"
   xmlns:inkscape="http://www.inkscape.org/namespaces/inkscape"
   width="1500"
   height="300"
   id="svg2"
   sodipodi:version="0.32"
   inkscape:version="0.45"
   sodipodi:docbase="C:\Documents and Settings\Games\My Documents\My Pictures\BUG"
   sodipodi:docname="batdownload.svg"
   inkscape:output_extension="org.inkscape.output.svg.inkscape"
   version="1.0"
   inkscape:export-filename="C:\Documents and Settings\Games\My Documents\My Pictures\BUG\batdownload210.png"
   inkscape:export-xdpi="12.621811"
   inkscape:export-ydpi="12.621811"
   sodipodi:modified="TRUE">
  <defs
     id="defs4">
    <linearGradient
       id="linearGradient3176">
      <stop
         style="stop-color:#ffffff;stop-opacity:1;"
         offset="0"
         id="stop3178" />
      <stop
         style="stop-color:#ffffff;stop-opacity:0;"
         offset="1"
         id="stop3180" />
    </linearGradient>
    <linearGradient
       id="linearGradient3150">
      <stop
         style="stop-color:#ffffff;stop-opacity:1;"
         offset="0"
         id="stop3152" />
      <stop
         style="stop-color:#ffffff;stop-opacity:0.97716898;"
         offset="1"
         id="stop3154" />
    </linearGradient>
    <linearGradient
       inkscape:collect="always"
       xlink:href="#linearGradient3176"
       id="linearGradient2177"
       gradientUnits="userSpaceOnUse"
       x1="342.33109"
       y1="344.80185"
       x2="330.48737"
       y2="509.00497" />
    <filter
       inkscape:collect="always"
       x="-0.030650228"
       width="1.0613005"
       y="-0.13561498"
       height="1.27123"
       id="filter3208">
      <feGaussianBlur
         inkscape:collect="always"
         stdDeviation="16.384776"
         id="feGaussianBlur3210" />
    </filter>
    <linearGradient
       inkscape:collect="always"
       xlink:href="#linearGradient3176"
       id="linearGradient3217"
       gradientUnits="userSpaceOnUse"
       x1="342.33109"
       y1="344.80185"
       x2="330.48737"
       y2="509.00497" />
    <linearGradient
       inkscape:collect="always"
       xlink:href="#linearGradient3176"
       id="linearGradient3226"
       gradientUnits="userSpaceOnUse"
       x1="342.33109"
       y1="344.80185"
       x2="330.48737"
       y2="509.00497" />
    <linearGradient
       inkscape:collect="always"
       xlink:href="#linearGradient3176"
       id="linearGradient3251"
       x1="1283.3024"
       y1="20.66976"
       x2="1281.2821"
       y2="201.42749"
       gradientUnits="userSpaceOnUse" />
    <linearGradient
       inkscape:collect="always"
       xlink:href="#linearGradient3176"
       id="linearGradient3263"
       gradientUnits="userSpaceOnUse"
       x1="342.33109"
       y1="344.80185"
       x2="330.48737"
       y2="509.00497" />
    <linearGradient
       inkscape:collect="always"
       xlink:href="#linearGradient3176"
       id="linearGradient3265"
       gradientUnits="userSpaceOnUse"
       x1="1283.3024"
       y1="20.66976"
       x2="1281.2821"
       y2="201.42749" />
    <linearGradient
       inkscape:collect="always"
       xlink:href="#linearGradient3176"
       id="linearGradient3284"
       gradientUnits="userSpaceOnUse"
       x1="342.33109"
       y1="344.80185"
       x2="330.48737"
       y2="509.00497" />
    <linearGradient
       inkscape:collect="always"
       xlink:href="#linearGradient3176"
       id="linearGradient3286"
       gradientUnits="userSpaceOnUse"
       x1="1283.3024"
       y1="20.66976"
       x2="1281.2821"
       y2="201.42749" />
  </defs>
  <sodipodi:namedview
     id="base"
     pagecolor="#ffffff"
     bordercolor="#666666"
     borderopacity="1.0"
     gridtolerance="10000"
     guidetolerance="10"
     objecttolerance="10"
     inkscape:pageopacity="0.0"
     inkscape:pageshadow="2"
     inkscape:zoom="0.1767767"
     inkscape:cx="818.74926"
     inkscape:cy="-93.024255"
     inkscape:document-units="px"
     inkscape:current-layer="layer1"
     showguides="true"
     inkscape:guide-bbox="true"
     inkscape:window-width="744"
     inkscape:window-height="574"
     inkscape:window-x="311"
     inkscape:window-y="140"
     width="1500px"
     height="300px" />
  <metadata
     id="metadata7">
    <rdf:RDF>
      <cc:Work
         rdf:about="">
        <dc:format>image/svg+xml</dc:format>
        <dc:type
           rdf:resource="http://purl.org/dc/dcmitype/StillImage" />
      </cc:Work>
    </rdf:RDF>
  </metadata>
  <g
     inkscape:label="Layer 1"
     inkscape:groupmode="layer"
     id="layer1"
     transform="translate(174.82035,-336.9562)">
    <g
       id="g3163"
       transform="translate(97.142857,91.428571)" />
    <g
       id="g3267"
       transform="translate(14.142136,36.769553)">
      <g
         transform="matrix(0.8993055,0,0,1,-22.690681,-152.73506)"
         id="g3228">
        <g
           transform="matrix(1.5197889,0,0,1,92.227939,-2.8284271)"
           id="g3233">
          <rect
             style="fill:#000000;fill-opacity:1;stroke:none;stroke-width:1;stroke-linecap:round;stroke-linejoin:round;stroke-miterlimit:4;stroke-dasharray:none;stroke-opacity:0.05263157;filter:url(#filter3208)"
             id="rect3174"
             width="1069.1454"
             height="241.63666"
             x="-171.99194"
             y="495.34811"
             rx="64.573074"
             ry="69.54055" />
          <rect
             ry="69.54055"
             rx="64.573074"
             y="492.51968"
             x="-169.16351"
             height="241.63666"
             width="1069.1454"
             id="rect2173"
             style="fill:#e5ff80;fill-opacity:1;stroke:none;stroke-width:1;stroke-linecap:round;stroke-linejoin:round;stroke-miterlimit:4;stroke-dasharray:none;stroke-opacity:0.05263157" />
          <path
             id="path3163"
             d="M 303.80524,493.33217 C 310.36957,505.89386 317.31923,520.07563 320.83649,534.14467 C 321.80135,538.00412 322.32857,541.24688 322.52399,543.98842 C 360.93755,561.35532 404.88851,601.60294 422.24274,618.95717 C 447.39769,644.11215 411.54512,690.44528 406.24274,716.95717 C 404.90062,723.66765 405.83257,729.62954 408.24274,734.95717 L 547.21149,734.95717 C 561.15032,703.20731 543.5398,659.72702 528.24274,632.95717 C 519.63457,617.8929 430.9852,557.98734 438.24274,528.95717 C 442.07605,513.62386 533.17726,562.86986 542.24274,574.95717 C 551.29219,587.02313 539.7238,624.65981 546.24274,640.95717 C 561.41732,678.89369 612.98793,696.11675 617.86774,734.95717 L 724.02399,734.95717 C 740.03356,707.12411 742.91059,677.95894 722.24274,646.95717 C 712.90939,632.95717 703.57608,618.95717 694.24274,604.95717 C 690.73449,599.69482 690.24274,592.95717 688.24274,586.95717 C 675.62416,549.10152 752.75745,584.76305 758.24274,586.95717 C 805.67667,605.93075 830.83454,652.79387 876.24279,670.95717 C 882.82219,673.58895 890.80899,671.44551 899.36779,667.42592 C 899.39099,666.76537 899.43029,666.09107 899.43029,665.42592 L 899.39899,562.86342 C 899.39899,551.99033 896.28329,541.72932 890.68029,532.58217 C 879.84199,544.60748 866.31469,544.14467 844.83649,544.14467 C 819.99571,544.14467 824.63782,528.42546 800.83649,514.14467 C 743.91347,479.99085 668.69014,546.14467 602.83649,546.14467 C 585.80886,546.14467 562.8068,546.13353 546.83649,540.14467 C 517.12236,529.00187 497.86748,527.17565 474.83649,504.14467 C 471.27439,500.58257 467.80514,496.78386 464.33649,493.33217 L 428.33649,493.33217 C 421.41701,502.32968 414.87261,516.2169 420.83649,528.14467 C 423.77271,534.01711 441.04003,564.14467 422.83649,564.14467 C 413.65753,564.14467 388.03392,568.93438 384.83649,556.14467 C 378.69954,531.59687 374.00951,516.9787 362.39899,493.33217 L 303.80524,493.33217 z M 154.83649,518.14467 C 130.45945,518.14467 129.80413,537.96408 112.83649,548.14467 C 88.4739,562.76222 72.2942,565.60238 50.83649,544.14467 C 36.59454,529.90271 11.85438,518.12082 -3.16351,538.14467 C -11.21263,548.87683 -17.72177,572.14467 -29.16351,572.14467 C -52.54046,572.14467 -78.062875,589.2453 -97.16351,570.14467 C -99.16351,568.14467 -101.16351,566.14467 -103.16351,564.14467 C -118.93014,548.37804 -128.04826,531.79077 -147.16351,524.14467 C -149.00073,523.40978 -150.85817,522.61458 -152.72601,521.73842 C -163.42425,533.24314 -169.75726,547.44325 -169.75726,562.86342 L -169.75726,665.42592 C -169.75726,697.54473 -142.37678,724.43034 -104.94476,732.48842 C -89.563302,725.84484 -75.70448,718.90439 -67.75726,710.95717 C -42.03093,685.23084 -40.34766,642.41104 -19.75726,614.95717 C 0.99452,587.28814 20.22367,598.94445 50.24274,618.95717 C 96.61979,649.87519 100.48055,656.38401 108.24274,702.95717 C 110.10634,714.13872 109.90723,724.81343 110.08649,734.95717 L 262.27399,734.95717 C 276.38561,711.04498 284.24274,684.3461 284.24274,648.95717 C 284.24275,608.85899 256.43064,612.59809 230.24274,592.95717 C 212.34154,579.53127 236.73632,560.95265 253.77399,550.76967 C 215.60431,541.80197 179.66424,518.14467 154.83649,518.14467 z "
             style="fill:#3e4837;fill-opacity:1;stroke:none;stroke-width:1;stroke-linecap:round;stroke-linejoin:round;stroke-miterlimit:4;stroke-dasharray:none;stroke-opacity:0.05263157" />
        </g>
      </g>
      <g
         transform="translate(7.8781483e-8,8.4852803)"
         id="g3212">
        <g
           id="g3253">
          <text
             transform="scale(0.9663318,1.0348412)"
             id="text2175"
             y="494.69983"
             x="-128.77672"
             style="font-size:204.25752258px;font-style:normal;font-weight:normal;fill:#ff0000;fill-opacity:1;stroke:none;stroke-width:1px;stroke-linecap:butt;stroke-linejoin:miter;stroke-opacity:1;font-family:Beesknees ITC"
             xml:space="preserve"><tspan
               style="fill:#ff0000;fill-opacity:1"
               y="494.69983"
               x="-128.77672"
               id="tspan2177"
               sodipodi:role="line">Download Bat</tspan></text>
          <path
             id="path3174"
             d="M -89.200183,364.80184 C -95.689603,364.80199 -102.41729,365.12022 -109.35643,365.73934 C -112.4251,382.0408 -114.52868,399.72884 -115.66893,418.80184 C -112.84469,419.3836 -109.81354,419.73934 -106.35643,419.73934 C -96.213333,419.73934 -76.325183,423.24715 -66.356433,425.73934 C -54.731613,428.64554 -38.422723,425.73934 -26.356433,425.73934 C -13.313693,425.73934 -6.9504028,423.7283 -0.3251828,416.55184 C -3.7712128,405.55201 -10.113953,395.5035 -19.418933,386.42684 C -34.196863,372.01198 -57.460023,364.80199 -89.200183,364.80184 z M 301.70607,383.89559 C 298.6825,405.15597 297.01379,427.61539 296.67482,451.20809 C 310.16478,449.54755 326.40929,457.73934 341.64357,457.73934 C 356.31024,457.73934 370.9769,457.73934 385.64357,457.73934 C 389.44632,457.73934 392.47482,457.43425 395.04983,456.89559 C 395.71197,437.5428 396.99778,417.84403 398.86233,397.83309 C 384.14864,395.7002 371.8507,394.64571 361.95607,394.64559 C 359.45019,394.64571 357.19777,394.72685 355.20607,394.86434 C 354.17798,403.19006 353.6435,412.43106 353.64357,422.61434 C 330.8985,407.82101 313.59257,394.90478 301.70607,383.89559 z M 687.51857,386.58309 C 661.9624,410.50826 639.00891,436.73006 618.67482,465.20809 C 631.54315,458.19599 626.78048,449.30779 643.64357,457.73934 C 658.99801,465.41656 674.86935,463.73934 691.64357,463.73934 C 704.31024,463.73934 716.97691,463.73934 729.64357,463.73934 C 730.50498,463.73934 731.2489,463.72134 731.92482,463.67684 C 718.4073,432.20464 703.62154,406.47638 687.51857,386.58309 z M 72.049817,391.95809 C 54.444867,391.95821 39.508447,398.06067 27.268567,410.23934 C 24.666677,412.82825 22.348607,415.52981 20.299817,418.36434 C 25.746577,428.21637 36.790787,435.52614 45.643567,437.73934 C 57.280737,440.64863 73.730847,437.73934 85.643567,437.73934 C 103.49434,437.73934 110.35374,439.02917 119.64357,429.73934 C 122.02553,427.35738 124.23965,425.80974 126.33107,424.89559 C 123.52303,419.79974 119.94296,415.02067 115.54982,410.55184 C 103.37407,398.16675 88.883617,391.95821 72.049817,391.95809 z M 547.76857,391.95809 C 530.16362,391.95821 515.2272,398.06067 502.98733,410.23934 C 490.74741,422.41821 484.64358,437.31241 484.64358,454.92684 C 484.64358,460.06146 485.20089,464.95747 486.26858,469.64559 C 489.04927,468.96215 491.58926,468.25292 493.64358,467.73934 C 509.55479,463.76153 520.12611,471.35997 537.64357,475.73934 C 541.45687,476.69267 545.79529,477.09887 550.36232,477.20809 C 550.36029,477.10258 550.36232,477.00197 550.36232,476.89559 C 550.36225,472.97365 551.7557,469.62296 554.51857,466.80184 C 557.28131,463.98081 560.54014,462.55189 564.33107,462.55184 C 568.25032,462.55189 571.59944,463.98082 574.36232,466.80184 C 576.90741,469.40073 578.25551,472.45623 578.45607,475.98934 C 580.95621,475.85948 583.38942,475.73934 585.64357,475.73934 C 595.22782,475.73934 601.42907,473.69738 607.64357,470.77059 C 608.89558,465.74585 609.54979,460.47241 609.54982,454.92684 C 609.54969,437.72525 603.44408,422.93713 591.26857,410.55184 C 579.09282,398.16675 564.60238,391.95821 547.76857,391.95809 z M 175.26857,392.80184 C 162.67525,396.3111 149.04291,401.72089 134.39357,409.08309 C 136.1607,415.27849 138.11348,421.47416 140.20607,427.64559 C 144.61133,430.99965 148.86826,435.91909 153.64357,439.73934 C 168.46117,451.59342 193.55488,453.71716 209.64357,457.73934 C 223.68496,461.24968 239.06252,459.73934 253.64357,459.73934 C 256.31024,459.73934 258.9769,459.73934 261.64357,459.73934 C 264.70143,459.73934 268.03988,459.2092 271.45607,458.39559 C 280.24821,443.60583 288.41228,427.71192 295.92482,410.73934 C 280.88983,402.9643 267.02147,397.18007 254.29982,393.39559 C 248.19582,406.95061 240.66817,420.34106 231.73732,433.55184 C 224.79807,419.03373 218.39663,407.80846 212.54982,399.89559 C 204.45407,412.07447 198.49859,422.53223 194.64357,431.27059 C 188.21837,420.67445 181.75792,407.8706 175.26857,392.80184 z M 439.92483,395.05184 C 432.40738,395.05196 424.61249,395.18298 416.58108,395.45809 C 413.54669,412.53186 411.74909,430.42234 411.14358,449.08309 C 411.93477,448.63179 412.75199,448.18513 413.64358,447.73934 C 415.62134,446.75046 450.54995,467.19252 455.64358,469.73934 C 462.69443,473.26477 471.99987,472.57633 480.20608,470.98934 C 480.26369,468.36437 480.30638,465.88929 480.39358,462.55184 C 472.10507,462.6895 466.94782,462.77064 464.95608,462.77059 C 462.0647,462.77064 459.36811,462.68951 456.86233,462.55184 C 456.73377,460.00605 456.6748,457.12955 456.67483,453.89559 C 456.67478,435.86832 458.98614,416.48149 463.61233,395.77059 C 454.36007,395.28906 446.47841,395.05196 439.92483,395.05184 z M 765.86232,397.42684 C 761.55745,397.42695 756.1052,397.63912 749.48732,398.05184 C 745.44628,418.86526 743.40038,441.74907 743.39357,466.67684 C 748.96088,469.31723 762.08873,472.93261 775.51857,475.30184 C 776.06414,475.39809 776.68675,475.43721 777.33107,475.48934 C 777.42404,473.64645 777.54954,471.7952 777.70607,469.89559 C 781.70716,471.05691 784.53355,472.85874 786.20607,475.30184 C 803.52031,473.80057 831.30577,467.24106 840.76857,466.83309 C 841.89867,462.62459 842.48727,458.2359 842.48737,453.67684 C 842.48717,438.53945 836.35297,425.38926 824.08107,414.20809 C 811.80896,403.02712 792.39815,397.42696 765.86232,397.42684 z "
             style="font-size:204.25752258px;font-style:normal;font-weight:normal;fill:url(#linearGradient3284);fill-opacity:1;stroke:none;stroke-width:1px;stroke-linecap:butt;stroke-linejoin:miter;stroke-opacity:1;font-family:Beesknees ITC" />
          <path
             style="fill:url(#linearGradient3286);fill-opacity:1;fill-rule:evenodd;stroke:none;stroke-width:1px;stroke-linecap:butt;stroke-linejoin:miter;stroke-opacity:1"
             d="M 1143.8125,40.46875 C 1123.1877,40.468904 1104.7851,47.813077 1088.5938,62.46875 C 1086.7304,89.097038 1085.8124,112.54586 1085.8125,132.84375 C 1085.8125,135.41596 1085.8384,138.00102 1085.875,140.59375 C 1086.9059,140.59858 1087.8816,140.625 1088.9375,140.625 C 1109.1851,140.62501 1127.5235,139.09066 1145.5,146.28125 C 1157.1453,150.93935 1171.1734,151.73395 1184.9063,151.875 C 1199.3411,139.59382 1206.5624,123.31974 1206.5625,103.03125 C 1206.5624,84.728785 1200.6954,69.72851 1188.9375,58.03125 C 1177.1794,46.334264 1162.1241,40.468904 1143.8125,40.46875 z M 1283.9688,68.96875 C 1257.6502,93.607634 1234.0928,120.65757 1213.3125,150.125 C 1222.9993,148.46772 1233.2586,146.28125 1244.5,146.28125 C 1255.4777,146.28125 1263.2392,147.43829 1271.125,149.25 C 1271.5199,148.77439 1271.913,148.28391 1272.3125,147.8125 C 1272.6555,148.45139 1272.9767,149.10668 1273.3125,149.75 C 1279.0723,151.15107 1285.068,152.86856 1292.5938,154.75 C 1303.8194,157.55643 1319.6603,155.74181 1331.4688,153.34375 C 1317.1319,118.51801 1301.3009,90.380479 1283.9688,68.96875 z M 1368.4688,78.96875 C 1355.0402,78.968866 1343.721,79.443069 1334.4688,80.40625 C 1332.2842,92.65394 1331.1875,103.21778 1331.1875,112.09375 C 1331.1875,113.95161 1331.3055,117.25242 1331.5625,122 C 1337.2166,122.89456 1344.6558,123.5061 1353.8438,123.78125 C 1353.2421,133.92883 1352.8433,142.6553 1352.5938,150.28125 C 1361.4703,150.34789 1370.0288,151.9375 1380.2813,151.9375 C 1387.0457,151.9375 1393.5084,152.02284 1399.7813,151.84375 C 1399.7934,150.63443 1399.8125,149.41814 1399.8125,148.21875 C 1399.8124,141.06291 1399.5452,132.6393 1399.0313,122.9375 C 1406.4201,122.93757 1413.0888,122.27615 1419,120.96875 C 1419.2569,117.87253 1419.3749,114.22854 1419.375,110.03125 C 1419.3749,99.297504 1418.7224,89.420027 1417.4375,80.40625 C 1398.4832,79.443072 1382.1543,78.968869 1368.4688,78.96875 z M 1143.625,121.59375 C 1149.5361,121.59382 1152.4999,124.95082 1152.5,131.625 C 1152.4999,138.36811 1149.8033,141.71881 1144.4063,141.71875 C 1143.8922,141.7188 1142.707,141.58778 1140.8438,141.3125 C 1140.5867,138.6291 1140.4686,135.67147 1140.4688,132.4375 C 1140.4687,128.6532 1140.5867,125.11529 1140.8438,121.8125 C 1141.5505,121.67496 1142.4684,121.59382 1143.625,121.59375 z "
             transform="translate(-178.24254,317.15721)"
             id="path3238" />
        </g>
      </g>
    </g>
  </g>
</svg>
