<?xml version="1.0" encoding="UTF-8" standalone="no"?>
<!-- Created with Inkscape (http://www.inkscape.org/) -->
<svg
   xmlns:dc="http://purl.org/dc/elements/1.1/"
   xmlns:cc="http://web.resource.org/cc/"
   xmlns:rdf="http://www.w3.org/1999/02/22-rdf-syntax-ns#"
   xmlns:svg="http://www.w3.org/2000/svg"
   xmlns="http://www.w3.org/2000/svg"
   xmlns:xlink="http://www.w3.org/1999/xlink"
   xmlns:sodipodi="http://sodipodi.sourceforge.net/DTD/sodipodi-0.dtd"
   xmlns:inkscape="http://www.inkscape.org/namespaces/inkscape"
   width="1069.7391"
   height="242.43748"
   id="svg2"
   sodipodi:version="0.32"
   inkscape:version="0.45"
   sodipodi:docbase="C:\Documents and Settings\Games\My Documents\My Pictures\BUG"
   sodipodi:docname="bugdownload.svg"
   inkscape:output_extension="org.inkscape.output.svg.inkscape"
   version="1.0"
   inkscape:export-filename="C:\Documents and Settings\Games\My Documents\My Pictures\BUG\Download150.png"
   inkscape:export-xdpi="12.621811"
   inkscape:export-ydpi="12.621811"
   sodipodi:modified="true">
  <defs
     id="defs4">
    <linearGradient
       id="linearGradient3176">
      <stop
         style="stop-color:#ffffff;stop-opacity:1;"
         offset="0"
         id="stop3178" />
      <stop
         style="stop-color:#ffffff;stop-opacity:0;"
         offset="1"
         id="stop3180" />
    </linearGradient>
    <linearGradient
       id="linearGradient3150">
      <stop
         style="stop-color:#ffffff;stop-opacity:1;"
         offset="0"
         id="stop3152" />
      <stop
         style="stop-color:#ffffff;stop-opacity:0.97716898;"
         offset="1"
         id="stop3154" />
    </linearGradient>
    <linearGradient
       inkscape:collect="always"
       xlink:href="#linearGradient3176"
       id="linearGradient3182"
       x1="342.33109"
       y1="344.80185"
       x2="330.48737"
       y2="509.00497"
       gradientUnits="userSpaceOnUse" />
    <linearGradient
       inkscape:collect="always"
       xlink:href="#linearGradient3176"
       id="linearGradient2177"
       gradientUnits="userSpaceOnUse"
       x1="342.33109"
       y1="344.80185"
       x2="330.48737"
       y2="509.00497" />
  </defs>
  <sodipodi:namedview
     id="base"
     pagecolor="#ffffff"
     bordercolor="#666666"
     borderopacity="1.0"
     gridtolerance="10000"
     guidetolerance="10"
     objecttolerance="10"
     inkscape:pageopacity="0.0"
     inkscape:pageshadow="2"
     inkscape:zoom="0.25"
     inkscape:cx="488.67037"
     inkscape:cy="291.74089"
     inkscape:document-units="px"
     inkscape:current-layer="layer1"
     showguides="true"
     inkscape:guide-bbox="true"
     inkscape:window-width="744"
     inkscape:window-height="574"
     inkscape:window-x="340"
     inkscape:window-y="173" />
  <metadata
     id="metadata7">
    <rdf:RDF>
      <cc:Work
         rdf:about="">
        <dc:format>image/svg+xml</dc:format>
        <dc:type
           rdf:resource="http://purl.org/dc/dcmitype/StillImage" />
      </cc:Work>
    </rdf:RDF>
  </metadata>
  <g
     inkscape:label="Layer 1"
     inkscape:groupmode="layer"
     id="layer1"
     transform="translate(178.24254,-325.64249)">
    <g
       id="g3163"
       transform="translate(97.142857,91.428571)" />
    <g
       id="g2170">
      <rect
         ry="69.54055"
         rx="88.255554"
         y="325.64249"
         x="-177.64879"
         height="241.63666"
         width="1069.1454"
         id="rect2173"
         style="opacity:1;fill:#ff0000;fill-opacity:1;stroke:none;stroke-width:1;stroke-linecap:round;stroke-linejoin:round;stroke-miterlimit:4;stroke-dasharray:none;stroke-opacity:0.05263157" />
      <path
         id="path3163"
         transform="translate(-177.64879,245.64247)"
         d="M 472.96875,80.8125 C 479.53308,93.374187 486.48274,107.55596 490,121.625 C 490.96486,125.48445 491.49208,128.72721 491.6875,131.46875 C 530.10106,148.83565 574.05202,189.08327 591.40625,206.4375 C 616.5612,231.59248 580.70863,277.92561 575.40625,304.4375 C 574.06413,311.14798 574.99608,317.10987 577.40625,322.4375 L 716.375,322.4375 C 730.31383,290.68764 712.70331,247.20735 697.40625,220.4375 C 688.79808,205.37323 600.14871,145.46767 607.40625,116.4375 C 611.23956,101.10419 702.34077,150.35019 711.40625,162.4375 C 720.4557,174.50346 708.88731,212.14014 715.40625,228.4375 C 730.58083,266.37402 782.15144,283.59708 787.03125,322.4375 L 893.1875,322.4375 C 909.19707,294.60444 912.0741,265.43927 891.40625,234.4375 C 882.0729,220.4375 872.73959,206.4375 863.40625,192.4375 C 859.898,187.17515 859.40625,180.4375 857.40625,174.4375 C 844.78767,136.58185 921.92096,172.24338 927.40625,174.4375 C 974.84018,193.41108 999.99805,240.2742 1045.4063,258.4375 C 1051.9857,261.06928 1059.9725,258.92584 1068.5313,254.90625 C 1068.5545,254.2457 1068.5938,253.5714 1068.5938,252.90625 L 1068.5625,150.34375 C 1068.5625,139.47066 1065.4468,129.20965 1059.8438,120.0625 C 1049.0055,132.08781 1035.4782,131.625 1014,131.625 C 989.15922,131.625 993.80133,115.90579 970,101.625 C 913.07698,67.471183 837.85365,133.625 772,133.625 C 754.97237,133.625 731.97031,133.61386 716,127.625 C 686.28587,116.4822 667.03099,114.65598 644,91.625 C 640.4379,88.062898 636.96865,84.264194 633.5,80.8125 L 597.5,80.8125 C 590.58052,89.810006 584.03612,103.69723 590,115.625 C 592.93622,121.49744 610.20354,151.625 592,151.625 C 582.82104,151.625 557.19743,156.41471 554,143.625 C 547.86305,119.0772 543.17302,104.45903 531.5625,80.8125 L 472.96875,80.8125 z M 324,105.625 C 299.62296,105.625 298.96764,125.44441 282,135.625 C 257.63741,150.24255 241.45771,153.08271 220,131.625 C 205.75805,117.38304 181.01789,105.60115 166,125.625 C 157.95088,136.35716 151.44174,159.625 140,159.625 C 116.62305,159.625 91.100635,176.72563 72,157.625 C 70,155.625 68,153.625 66,151.625 C 50.233371,135.85837 41.115253,119.2711 22,111.625 C 20.162778,110.89011 18.305336,110.09491 16.4375,109.21875 C 5.739263,120.72347 -0.59375,134.92358 -0.59375,150.34375 L -0.59375,252.90625 C -0.59375003,285.02506 26.78673,311.91067 64.21875,319.96875 C 79.600208,313.32517 93.45903,306.38472 101.40625,298.4375 C 127.13258,272.71117 128.81585,229.89137 149.40625,202.4375 C 170.15803,174.76847 189.38718,186.42478 219.40625,206.4375 C 265.7833,237.35552 269.64406,243.86434 277.40625,290.4375 C 279.26985,301.61905 279.07074,312.29376 279.25,322.4375 L 431.4375,322.4375 C 445.54912,298.52531 453.40625,271.82643 453.40625,236.4375 C 453.40626,196.33932 425.59415,200.07842 399.40625,180.4375 C 381.50505,167.0116 405.89983,148.43298 422.9375,138.25 C 384.76782,129.2823 348.82775,105.625 324,105.625 z "
         style="opacity:1;fill:#000000;fill-opacity:1;stroke:none;stroke-width:1;stroke-linecap:round;stroke-linejoin:round;stroke-miterlimit:4;stroke-dasharray:none;stroke-opacity:0.05263157" />
      <text
         transform="scale(0.9663318,1.0348412)"
         id="text2175"
         y="494.69983"
         x="-128.77672"
         style="font-size:204.25752258px;font-style:normal;font-weight:normal;fill:#0000ff;fill-opacity:1;stroke:none;stroke-width:1px;stroke-linecap:butt;stroke-linejoin:miter;stroke-opacity:1;font-family:Beesknees ITC"
         xml:space="preserve"><tspan
           style="fill:#0000ff;fill-opacity:1"
           y="494.69983"
           x="-128.77672"
           id="tspan2177"
           sodipodi:role="line">Download</tspan></text>
      <path
         id="path3174"
         d="M -89.200183,364.80184 C -95.689603,364.80199 -102.41729,365.12022 -109.35643,365.73934 C -112.4251,382.0408 -114.52868,399.72884 -115.66893,418.80184 C -112.84469,419.3836 -109.81354,419.73934 -106.35643,419.73934 C -96.213333,419.73934 -76.325183,423.24715 -66.356433,425.73934 C -54.731613,428.64554 -38.422723,425.73934 -26.356433,425.73934 C -13.313693,425.73934 -6.9504028,423.7283 -0.3251828,416.55184 C -3.7712128,405.55201 -10.113953,395.5035 -19.418933,386.42684 C -34.196863,372.01198 -57.460023,364.80199 -89.200183,364.80184 z M 301.70607,383.89559 C 298.6825,405.15597 297.01379,427.61539 296.67482,451.20809 C 310.16478,449.54755 326.40929,457.73934 341.64357,457.73934 C 356.31024,457.73934 370.9769,457.73934 385.64357,457.73934 C 389.44632,457.73934 392.47482,457.43425 395.04983,456.89559 C 395.71197,437.5428 396.99778,417.84403 398.86233,397.83309 C 384.14864,395.7002 371.8507,394.64571 361.95607,394.64559 C 359.45019,394.64571 357.19777,394.72685 355.20607,394.86434 C 354.17798,403.19006 353.6435,412.43106 353.64357,422.61434 C 330.8985,407.82101 313.59257,394.90478 301.70607,383.89559 z M 687.51857,386.58309 C 661.9624,410.50826 639.00891,436.73006 618.67482,465.20809 C 631.54315,458.19599 626.78048,449.30779 643.64357,457.73934 C 658.99801,465.41656 674.86935,463.73934 691.64357,463.73934 C 704.31024,463.73934 716.97691,463.73934 729.64357,463.73934 C 730.50498,463.73934 731.2489,463.72134 731.92482,463.67684 C 718.4073,432.20464 703.62154,406.47638 687.51857,386.58309 z M 72.049817,391.95809 C 54.444867,391.95821 39.508447,398.06067 27.268567,410.23934 C 24.666677,412.82825 22.348607,415.52981 20.299817,418.36434 C 25.746577,428.21637 36.790787,435.52614 45.643567,437.73934 C 57.280737,440.64863 73.730847,437.73934 85.643567,437.73934 C 103.49434,437.73934 110.35374,439.02917 119.64357,429.73934 C 122.02553,427.35738 124.23965,425.80974 126.33107,424.89559 C 123.52303,419.79974 119.94296,415.02067 115.54982,410.55184 C 103.37407,398.16675 88.883617,391.95821 72.049817,391.95809 z M 547.76857,391.95809 C 530.16362,391.95821 515.2272,398.06067 502.98733,410.23934 C 490.74741,422.41821 484.64358,437.31241 484.64358,454.92684 C 484.64358,460.06146 485.20089,464.95747 486.26858,469.64559 C 489.04927,468.96215 491.58926,468.25292 493.64358,467.73934 C 509.55479,463.76153 520.12611,471.35997 537.64357,475.73934 C 541.45687,476.69267 545.79529,477.09887 550.36232,477.20809 C 550.36029,477.10258 550.36232,477.00197 550.36232,476.89559 C 550.36225,472.97365 551.7557,469.62296 554.51857,466.80184 C 557.28131,463.98081 560.54014,462.55189 564.33107,462.55184 C 568.25032,462.55189 571.59944,463.98082 574.36232,466.80184 C 576.90741,469.40073 578.25551,472.45623 578.45607,475.98934 C 580.95621,475.85948 583.38942,475.73934 585.64357,475.73934 C 595.22782,475.73934 601.42907,473.69738 607.64357,470.77059 C 608.89558,465.74585 609.54979,460.47241 609.54982,454.92684 C 609.54969,437.72525 603.44408,422.93713 591.26857,410.55184 C 579.09282,398.16675 564.60238,391.95821 547.76857,391.95809 z M 175.26857,392.80184 C 162.67525,396.3111 149.04291,401.72089 134.39357,409.08309 C 136.1607,415.27849 138.11348,421.47416 140.20607,427.64559 C 144.61133,430.99965 148.86826,435.91909 153.64357,439.73934 C 168.46117,451.59342 193.55488,453.71716 209.64357,457.73934 C 223.68496,461.24968 239.06252,459.73934 253.64357,459.73934 C 256.31024,459.73934 258.9769,459.73934 261.64357,459.73934 C 264.70143,459.73934 268.03988,459.2092 271.45607,458.39559 C 280.24821,443.60583 288.41228,427.71192 295.92482,410.73934 C 280.88983,402.9643 267.02147,397.18007 254.29982,393.39559 C 248.19582,406.95061 240.66817,420.34106 231.73732,433.55184 C 224.79807,419.03373 218.39663,407.80846 212.54982,399.89559 C 204.45407,412.07447 198.49859,422.53223 194.64357,431.27059 C 188.21837,420.67445 181.75792,407.8706 175.26857,392.80184 z M 439.92483,395.05184 C 432.40738,395.05196 424.61249,395.18298 416.58108,395.45809 C 413.54669,412.53186 411.74909,430.42234 411.14358,449.08309 C 411.93477,448.63179 412.75199,448.18513 413.64358,447.73934 C 415.62134,446.75046 450.54995,467.19252 455.64358,469.73934 C 462.69443,473.26477 471.99987,472.57633 480.20608,470.98934 C 480.26369,468.36437 480.30638,465.88929 480.39358,462.55184 C 472.10507,462.6895 466.94782,462.77064 464.95608,462.77059 C 462.0647,462.77064 459.36811,462.68951 456.86233,462.55184 C 456.73377,460.00605 456.6748,457.12955 456.67483,453.89559 C 456.67478,435.86832 458.98614,416.48149 463.61233,395.77059 C 454.36007,395.28906 446.47841,395.05196 439.92483,395.05184 z M 765.86232,397.42684 C 761.55745,397.42695 756.1052,397.63912 749.48732,398.05184 C 745.44628,418.86526 743.40038,441.74907 743.39357,466.67684 C 748.96088,469.31723 762.08873,472.93261 775.51857,475.30184 C 776.06414,475.39809 776.68675,475.43721 777.33107,475.48934 C 777.42404,473.64645 777.54954,471.7952 777.70607,469.89559 C 781.70716,471.05691 784.53355,472.85874 786.20607,475.30184 C 803.52031,473.80057 831.30577,467.24106 840.76857,466.83309 C 841.89867,462.62459 842.48727,458.2359 842.48737,453.67684 C 842.48717,438.53945 836.35297,425.38926 824.08107,414.20809 C 811.80896,403.02712 792.39815,397.42696 765.86232,397.42684 z "
         style="font-size:204.25752258px;font-style:normal;font-weight:normal;fill:url(#linearGradient2177);fill-opacity:1;stroke:none;stroke-width:1px;stroke-linecap:butt;stroke-linejoin:miter;stroke-opacity:1;font-family:Beesknees ITC" />
    </g>
  </g>
</svg>
