<?xml version="1.0" encoding="UTF-8" standalone="no"?>
<!-- Created with Inkscape (http://www.inkscape.org/) -->
<svg
   xmlns:dc="http://purl.org/dc/elements/1.1/"
   xmlns:cc="http://creativecommons.org/ns#"
   xmlns:rdf="http://www.w3.org/1999/02/22-rdf-syntax-ns#"
   xmlns:svg="http://www.w3.org/2000/svg"
   xmlns="http://www.w3.org/2000/svg"
   xmlns:xlink="http://www.w3.org/1999/xlink"
   xmlns:sodipodi="http://sodipodi.sourceforge.net/DTD/sodipodi-0.dtd"
   xmlns:inkscape="http://www.inkscape.org/namespaces/inkscape"
   width="24"
   height="24"
   id="svg3148"
   sodipodi:version="0.32"
   inkscape:version="0.46"
   version="1.0"
   sodipodi:docname="PLE_Reset_Filters.svg"
   inkscape:output_extension="org.inkscape.output.svg.inkscape"
   sodipodi:docbase="C:\Documents and Settings\Games\My Documents\My Pictures\BUG\PLE"
   inkscape:export-filename="C:\Documents and Settings\James\My Documents\My Games\BUG Work\PLE Filters\cancel.png"
   inkscape:export-xdpi="90"
   inkscape:export-ydpi="90"
   sodipodi:modified="TRUE">
  <defs
     id="defs3150">
    <inkscape:perspective
       sodipodi:type="inkscape:persp3d"
       inkscape:vp_x="0 : 571.5 : 1"
       inkscape:vp_y="0 : 1000 : 0"
       inkscape:vp_z="1143 : 571.5 : 1"
       inkscape:persp3d-origin="571.5 : 381 : 1"
       id="perspective23" />
    <linearGradient
       id="linearGradient3158">
      <stop
         style="stop-color:#f8eac7;stop-opacity:1"
         offset="0"
         id="stop3160" />
      <stop
         style="stop-color:#897864;stop-opacity:1;"
         offset="1"
         id="stop3162" />
    </linearGradient>
    <linearGradient
       inkscape:collect="always"
       xlink:href="#linearGradient3158"
       id="linearGradient3164"
       x1="647.14288"
       y1="451.33795"
       x2="647.14288"
       y2="1001.439"
       gradientUnits="userSpaceOnUse" />
    <filter
       inkscape:collect="always"
       id="filter3198">
      <feGaussianBlur
         inkscape:collect="always"
         stdDeviation="4.8438161"
         id="feGaussianBlur3200" />
    </filter>
    <filter
       inkscape:collect="always"
       x="-0.14330095"
       width="1.2866019"
       y="-0.14560634"
       height="1.2912127"
       id="filter5219">
      <feGaussianBlur
         inkscape:collect="always"
         stdDeviation="50.122458"
         id="feGaussianBlur5221" />
    </filter>
    <filter
       inkscape:collect="always"
       id="filter3211"
       x="-0.1245283"
       width="1.2490566"
       y="-0.1245283"
       height="1.2490566">
      <feGaussianBlur
         inkscape:collect="always"
         stdDeviation="0.83018902"
         id="feGaussianBlur3213" />
    </filter>
  </defs>
  <sodipodi:namedview
     id="base"
     pagecolor="#ffffff"
     bordercolor="#666666"
     borderopacity="1.0"
     gridtolerance="10000"
     guidetolerance="10"
     objecttolerance="10"
     inkscape:pageopacity="0.0"
     inkscape:pageshadow="2"
     inkscape:zoom="0.175"
     inkscape:cx="-239.81135"
     inkscape:cy="247.65358"
     inkscape:document-units="px"
     inkscape:current-layer="layer1"
     width="1143px"
     height="1143px"
     inkscape:window-width="744"
     inkscape:window-height="573"
     inkscape:window-x="246"
     inkscape:window-y="256"
     showgrid="true">
    <inkscape:grid
       type="xygrid"
       id="grid3174"
       visible="true"
       enabled="true" />
  </sodipodi:namedview>
  <metadata
     id="metadata3153">
    <rdf:RDF>
      <cc:Work
         rdf:about="">
        <dc:format>image/svg+xml</dc:format>
        <dc:type
           rdf:resource="http://purl.org/dc/dcmitype/StillImage" />
      </cc:Work>
    </rdf:RDF>
  </metadata>
  <g
     inkscape:label="Layer 1"
     inkscape:groupmode="layer"
     id="layer1"
     transform="translate(-220.93617,-242.50327)">
    <path
       id="path3176"
       d="M 233.93652,247.65559 C 229.60469,247.65559 226.08849,251.17105 226.08849,255.50289 C 226.08849,259.83476 229.60469,263.35095 233.93652,263.35095 C 238.26837,263.35095 241.78385,259.83476 241.78385,255.50289 C 241.78385,251.17105 238.26837,247.65559 233.93652,247.65559 z M 233.93652,249.87376 C 234.98415,249.87376 235.96492,250.16116 236.80516,250.66024 L 229.08713,258.36118 C 228.59185,257.52322 228.30709,256.54611 228.30709,255.50289 C 228.30709,252.39555 230.82919,249.87376 233.93652,249.87376 z M 238.84452,252.74584 C 239.30343,253.56083 239.56523,254.50151 239.56523,255.50289 C 239.56523,258.61023 237.04387,261.13205 233.93652,261.13205 C 232.9306,261.13205 231.98615,260.86741 231.16859,260.40455 L 238.84452,252.74584 z"
       style="fill:#000000;fill-opacity:1;stroke:#000000;stroke-width:0.30464651999999998;stroke-linecap:butt;stroke-linejoin:miter;stroke-miterlimit:4;stroke-dasharray:none;stroke-opacity:1;filter:url(#filter3211)" />
    <path
       style="fill:#ff0000;fill-opacity:1;stroke:#000000;stroke-width:0.30464652;stroke-linecap:butt;stroke-linejoin:miter;stroke-miterlimit:4;stroke-dasharray:none;stroke-opacity:1"
       d="M 232.93652,246.65559 C 228.60469,246.65559 225.08849,250.17105 225.08849,254.50289 C 225.08849,258.83476 228.60469,262.35095 232.93652,262.35095 C 237.26837,262.35095 240.78385,258.83476 240.78385,254.50289 C 240.78385,250.17105 237.26837,246.65559 232.93652,246.65559 z M 232.93652,248.87376 C 233.98415,248.87376 234.96492,249.16116 235.80516,249.66024 L 228.08713,257.36118 C 227.59185,256.52322 227.30709,255.54611 227.30709,254.50289 C 227.30709,251.39555 229.82919,248.87376 232.93652,248.87376 z M 237.84452,251.74584 C 238.30343,252.56083 238.56523,253.50151 238.56523,254.50289 C 238.56523,257.61023 236.04387,260.13205 232.93652,260.13205 C 231.9306,260.13205 230.98615,259.86741 230.16859,259.40455 L 237.84452,251.74584 z"
       id="rect4208" />
  </g>
</svg>
