<?xml version="1.0" encoding="UTF-8" standalone="no"?>
<!-- Created with Inkscape (http://www.inkscape.org/) -->
<svg
   xmlns:dc="http://purl.org/dc/elements/1.1/"
   xmlns:cc="http://creativecommons.org/ns#"
   xmlns:rdf="http://www.w3.org/1999/02/22-rdf-syntax-ns#"
   xmlns:svg="http://www.w3.org/2000/svg"
   xmlns="http://www.w3.org/2000/svg"
   xmlns:xlink="http://www.w3.org/1999/xlink"
   xmlns:sodipodi="http://sodipodi.sourceforge.net/DTD/sodipodi-0.dtd"
   xmlns:inkscape="http://www.inkscape.org/namespaces/inkscape"
   width="24"
   height="24"
   id="svg3148"
   sodipodi:version="0.32"
   inkscape:version="0.46"
   version="1.0"
   sodipodi:docname="PLE_Filter_Domestic_32_Rainbow.svg"
   inkscape:output_extension="org.inkscape.output.svg.inkscape"
   sodipodi:docbase="C:\Documents and Settings\Games\My Documents\My Pictures\BUG\PLE"
   inkscape:export-filename="C:\Documents and Settings\James\My Documents\My Games\BUG Work\PLE Filters\domestic.png"
   inkscape:export-xdpi="90"
   inkscape:export-ydpi="90"
   sodipodi:modified="TRUE">
  <defs
     id="defs3150">
    <inkscape:perspective
       sodipodi:type="inkscape:persp3d"
       inkscape:vp_x="0 : 571.5 : 1"
       inkscape:vp_y="0 : 1000 : 0"
       inkscape:vp_z="1143 : 571.5 : 1"
       inkscape:persp3d-origin="571.5 : 381 : 1"
       id="perspective45" />
    <linearGradient
       id="linearGradient3158">
      <stop
         style="stop-color:#f8eac7;stop-opacity:1"
         offset="0"
         id="stop3160" />
      <stop
         style="stop-color:#897864;stop-opacity:1;"
         offset="1"
         id="stop3162" />
    </linearGradient>
    <linearGradient
       inkscape:collect="always"
       xlink:href="#linearGradient3158"
       id="linearGradient3164"
       x1="647.14288"
       y1="451.33795"
       x2="647.14288"
       y2="1001.439"
       gradientUnits="userSpaceOnUse" />
    <linearGradient
       id="linearGradient2192">
      <stop
         id="stop2194"
         offset="0"
         style="stop-color:#ff6969;stop-opacity:1;" />
      <stop
         style="stop-color:#ffff69;stop-opacity:1;"
         offset="0.25"
         id="stop3179" />
      <stop
         id="stop3181"
         offset="0.5"
         style="stop-color:#6dff69;stop-opacity:1;" />
      <stop
         style="stop-color:#697bff;stop-opacity:1;"
         offset="0.75"
         id="stop3183" />
      <stop
         id="stop2196"
         offset="1"
         style="stop-color:#c969ff;stop-opacity:1;" />
    </linearGradient>
    <linearGradient
       inkscape:collect="always"
       xlink:href="#linearGradient2192"
       id="linearGradient3167"
       x1="569.78119"
       y1="134.12762"
       x2="569.78125"
       y2="1008.2079"
       gradientUnits="userSpaceOnUse" />
    <linearGradient
       inkscape:collect="always"
       xlink:href="#linearGradient2192"
       id="linearGradient3169"
       x1="522.32587"
       y1="-264.22812"
       x2="1085.1056"
       y2="404.57315"
       gradientUnits="userSpaceOnUse" />
    <linearGradient
       inkscape:collect="always"
       xlink:href="#linearGradient2192"
       id="linearGradient3171"
       x1="351.29831"
       y1="468.22037"
       x2="-209.06766"
       y2="1139.0454"
       gradientUnits="userSpaceOnUse" />
    <linearGradient
       inkscape:collect="always"
       xlink:href="#linearGradient2192"
       id="linearGradient3191"
       x1="504.26611"
       y1="989.07532"
       x2="829.71204"
       y2="177.84093"
       gradientUnits="userSpaceOnUse" />
    <linearGradient
       inkscape:collect="always"
       xlink:href="#linearGradient2192"
       id="linearGradient3238"
       gradientUnits="userSpaceOnUse"
       x1="504.26611"
       y1="989.07532"
       x2="829.71204"
       y2="177.84093" />
    <linearGradient
       inkscape:collect="always"
       xlink:href="#linearGradient2192"
       id="linearGradient3240"
       gradientUnits="userSpaceOnUse"
       x1="522.32587"
       y1="-264.22812"
       x2="1085.1056"
       y2="404.57315" />
    <linearGradient
       inkscape:collect="always"
       xlink:href="#linearGradient2192"
       id="linearGradient3242"
       gradientUnits="userSpaceOnUse"
       x1="569.78119"
       y1="134.12762"
       x2="569.78125"
       y2="1008.2079" />
    <linearGradient
       inkscape:collect="always"
       xlink:href="#linearGradient2192"
       id="linearGradient3244"
       gradientUnits="userSpaceOnUse"
       x1="351.29831"
       y1="468.22037"
       x2="-209.06766"
       y2="1139.0454" />
    <linearGradient
       inkscape:collect="always"
       xlink:href="#linearGradient2192"
       id="linearGradient3247"
       gradientUnits="userSpaceOnUse"
       x1="351.29831"
       y1="468.22037"
       x2="-209.06766"
       y2="1139.0454"
       gradientTransform="matrix(0.7099087,0,0,0.7099087,658.78481,797.61101)" />
    <linearGradient
       inkscape:collect="always"
       xlink:href="#linearGradient2192"
       id="linearGradient3250"
       gradientUnits="userSpaceOnUse"
       x1="569.78119"
       y1="134.12762"
       x2="569.78125"
       y2="1008.2079"
       gradientTransform="matrix(0.7099087,0,0,0.7099087,1016.9357,189.79585)" />
    <linearGradient
       inkscape:collect="always"
       xlink:href="#linearGradient2192"
       id="linearGradient3253"
       gradientUnits="userSpaceOnUse"
       x1="522.32587"
       y1="-264.22812"
       x2="1085.1056"
       y2="404.57315"
       gradientTransform="matrix(0.7099087,0,0,0.7099087,900.3078,-509.53569)" />
    <linearGradient
       inkscape:collect="always"
       xlink:href="#linearGradient2192"
       id="linearGradient3260"
       gradientUnits="userSpaceOnUse"
       x1="504.26611"
       y1="989.07532"
       x2="829.71204"
       y2="177.84093" />
    <linearGradient
       inkscape:collect="always"
       xlink:href="#linearGradient2192"
       id="linearGradient3263"
       gradientUnits="userSpaceOnUse"
       gradientTransform="matrix(0.5431857,0.4570773,-0.4570773,0.5431857,1016.9357,189.79585)"
       x1="522.32587"
       y1="-264.22812"
       x2="1085.1056"
       y2="404.57315" />
    <linearGradient
       inkscape:collect="always"
       xlink:href="#linearGradient2192"
       id="linearGradient3287"
       x1="503.9657"
       y1="988.95477"
       x2="828.35199"
       y2="180.36166"
       gradientUnits="userSpaceOnUse"
       gradientTransform="matrix(-0.6588667,0.26432,-0.26432,-0.6588667,2015.105,803.39536)" />
    <linearGradient
       inkscape:collect="always"
       xlink:href="#linearGradient2192"
       id="linearGradient3296"
       gradientUnits="userSpaceOnUse"
       gradientTransform="matrix(-0.6588667,0.26432,-0.26432,-0.6588667,2015.105,803.39536)"
       x1="503.9657"
       y1="988.95477"
       x2="828.35199"
       y2="180.36166" />
    <linearGradient
       inkscape:collect="always"
       xlink:href="#linearGradient2192"
       id="linearGradient3299"
       gradientUnits="userSpaceOnUse"
       gradientTransform="matrix(-1.5999795e-2,6.4186989e-3,-6.4186972e-3,-1.5999799e-2,26.411196,17.02421)"
       x1="503.9657"
       y1="988.95477"
       x2="828.35199"
       y2="180.36166" />
    <filter
       inkscape:collect="always"
       id="filter3311"
       x="-0.1245283"
       width="1.2490566"
       y="-0.1245283"
       height="1.2490566">
      <feGaussianBlur
         inkscape:collect="always"
         stdDeviation="0.85613209"
         id="feGaussianBlur3313" />
    </filter>
    <filter
       inkscape:collect="always"
       id="filter3210"
       x="-0.16981132"
       width="1.3396226"
       y="-0.16981132"
       height="1.3396226">
      <feGaussianBlur
         inkscape:collect="always"
         stdDeviation="1.2735849"
         id="feGaussianBlur3212" />
    </filter>
  </defs>
  <sodipodi:namedview
     id="base"
     pagecolor="#ffffff"
     bordercolor="#666666"
     borderopacity="1.0"
     gridtolerance="10000"
     guidetolerance="10"
     objecttolerance="10"
     inkscape:pageopacity="0.0"
     inkscape:pageshadow="2"
     inkscape:zoom="1"
     inkscape:cx="-342.36849"
     inkscape:cy="82.153395"
     inkscape:document-units="px"
     inkscape:current-layer="layer1"
     width="1143px"
     height="1143px"
     inkscape:window-width="1234"
     inkscape:window-height="874"
     inkscape:window-x="-4"
     inkscape:window-y="-4"
     showgrid="true">
    <inkscape:grid
       type="xygrid"
       id="grid3301"
       visible="true"
       enabled="true" />
  </sodipodi:namedview>
  <metadata
     id="metadata3153">
    <rdf:RDF>
      <cc:Work
         rdf:about="">
        <dc:format>image/svg+xml</dc:format>
        <dc:type
           rdf:resource="http://purl.org/dc/dcmitype/StillImage" />
      </cc:Work>
    </rdf:RDF>
  </metadata>
  <g
     inkscape:label="Layer 1"
     inkscape:groupmode="layer"
     id="layer1">
    <path
       style="fill:#000000;fill-opacity:1;stroke:#000000;stroke-width:1;stroke-linecap:butt;stroke-linejoin:miter;stroke-miterlimit:4;stroke-dasharray:none;stroke-opacity:1;filter:url(#filter3210)"
       d="M 13.176818,4.9527609 C 8.7612468,4.9507627 5.1754275,8.5326363 5.1730262,12.948208 C 5.1706165,17.364042 8.7526357,20.950353 13.168471,20.952759 C 17.584304,20.955167 21.170611,17.37315 21.173024,12.957314 C 21.175429,8.5414795 17.593407,4.9551685 13.177577,4.9527609 L 13.176818,4.9527609 z M 14.173025,6.95276 C 17.173025,7.95276 20.173025,11.95276 18.173025,15.95276 L 14.173025,11.95276 L 14.173025,6.95276 z M 12.173025,6.95276 L 12.173025,11.95276 L 8.173025,15.95276 C 6.173025,11.95276 8.173025,7.95276 12.173025,6.95276 z M 12.173025,14.95276 L 12.173025,18.95276 C 11.071038,18.795601 10.016202,18.601212 9.173025,17.95276 L 12.173025,14.95276 z M 14.173025,14.95276 L 17,18 C 16.159889,18.638122 15.266451,18.799017 14.173025,18.95276 L 14.173025,14.95276 z"
       id="path3186"
       sodipodi:nodetypes="cssscccccccccccccccccc" />
    <path
       sodipodi:nodetypes="cssscccccccccccccccccc"
       id="path3184"
       d="M 12.003793,4.0000009 C 7.5882218,3.9980027 4.0024025,7.5798763 4.0000012,11.995448 C 3.9975915,16.411282 7.5796107,19.997593 11.995446,19.999999 C 16.411279,20.002407 19.997586,16.42039 19.999999,12.004554 C 20.002404,7.5887195 16.420382,4.0024085 12.004552,4.0000009 L 12.003793,4.0000009 z M 13,6 C 16,7 19,11 17,15 L 13,11 L 13,6 z M 11,6 L 11,11 L 7,15 C 5,11 7,7 11,6 z M 11,14 L 11,18 C 9.8980127,17.842841 8.8431773,17.648452 8,17 L 11,14 z M 13,14 L 15.826975,17.04724 C 14.986864,17.685362 14.093426,17.846257 13,18 L 13,14 z"
       style="fill:url(#linearGradient3299);fill-opacity:1;stroke:#000000;stroke-width:2;stroke-linecap:butt;stroke-linejoin:miter;stroke-miterlimit:4;stroke-opacity:1;stroke-dasharray:none" />
    <path
       style="fill:url(#linearGradient3299);fill-opacity:1;stroke:none;stroke-width:0.50000000000000000;stroke-linecap:butt;stroke-linejoin:miter;stroke-miterlimit:4;stroke-opacity:1;stroke-dasharray:none"
       d="M 12.003793,4.0000009 C 7.5882218,3.9980027 4.0024025,7.5798763 4.0000012,11.995448 C 3.9975915,16.411282 7.5796107,19.997593 11.995446,19.999999 C 16.411279,20.002407 19.997586,16.42039 19.999999,12.004554 C 20.002404,7.5887195 16.420382,4.0024085 12.004552,4.0000009 L 12.003793,4.0000009 z M 13,6 C 16,7 19,11 17,15 L 13,11 L 13,6 z M 11,6 L 11,11 L 7,15 C 5,11 7,7 11,6 z M 11,14 L 11,18 C 9.8980127,17.842841 8.8431773,17.648452 8,17 L 11,14 z M 13,14 L 15.826975,17.04724 C 14.986864,17.685362 14.093426,17.846257 13,18 L 13,14 z"
       id="path3222"
       sodipodi:nodetypes="cssscccccccccccccccccc" />
  </g>
</svg>
