<?xml version="1.0" encoding="UTF-8" standalone="no"?>
<!-- Created with Inkscape (http://www.inkscape.org/) -->
<svg
   xmlns:dc="http://purl.org/dc/elements/1.1/"
   xmlns:cc="http://creativecommons.org/ns#"
   xmlns:rdf="http://www.w3.org/1999/02/22-rdf-syntax-ns#"
   xmlns:svg="http://www.w3.org/2000/svg"
   xmlns="http://www.w3.org/2000/svg"
   xmlns:xlink="http://www.w3.org/1999/xlink"
   xmlns:sodipodi="http://sodipodi.sourceforge.net/DTD/sodipodi-0.dtd"
   xmlns:inkscape="http://www.inkscape.org/namespaces/inkscape"
   width="24"
   height="24"
   id="svg3148"
   sodipodi:version="0.32"
   inkscape:version="0.46"
   version="1.0"
   sodipodi:docname="PLE_Filter_Land_32.svg"
   inkscape:output_extension="org.inkscape.output.svg.inkscape"
   sodipodi:docbase="C:\Documents and Settings\Games\My Documents\My Pictures\PLE"
   sodipodi:modified="TRUE"
   inkscape:export-filename="C:\Documents and Settings\James\My Documents\My Games\BUG Work\PLE Filters\land.png"
   inkscape:export-xdpi="90"
   inkscape:export-ydpi="90">
  <defs
     id="defs3150">
    <inkscape:perspective
       sodipodi:type="inkscape:persp3d"
       inkscape:vp_x="0 : 571.5 : 1"
       inkscape:vp_y="0 : 1000 : 0"
       inkscape:vp_z="1143 : 571.5 : 1"
       inkscape:persp3d-origin="571.5 : 381 : 1"
       id="perspective56" />
    <linearGradient
       id="linearGradient5658">
      <stop
         id="stop5660"
         offset="0"
         style="stop-color:#aa8800;stop-opacity:1;" />
      <stop
         id="stop5662"
         offset="1"
         style="stop-color:#000000;stop-opacity:0;" />
    </linearGradient>
    <linearGradient
       inkscape:collect="always"
       id="linearGradient4994">
      <stop
         style="stop-color:#000000;stop-opacity:1;"
         offset="0"
         id="stop4996" />
      <stop
         style="stop-color:#000000;stop-opacity:0;"
         offset="1"
         id="stop4998" />
    </linearGradient>
    <linearGradient
       inkscape:collect="always"
       id="linearGradient4968">
      <stop
         style="stop-color:#000000;stop-opacity:1;"
         offset="0"
         id="stop4970" />
      <stop
         style="stop-color:#000000;stop-opacity:0;"
         offset="1"
         id="stop4972" />
    </linearGradient>
    <linearGradient
       id="linearGradient3158">
      <stop
         style="stop-color:#f8eac7;stop-opacity:1"
         offset="0"
         id="stop3160" />
      <stop
         style="stop-color:#897864;stop-opacity:1;"
         offset="1"
         id="stop3162" />
    </linearGradient>
    <linearGradient
       inkscape:collect="always"
       xlink:href="#linearGradient5658"
       id="linearGradient5650"
       gradientUnits="userSpaceOnUse"
       gradientTransform="matrix(1.1857598,0,0,1.2778594,117.44281,337.16873)"
       x1="899.50006"
       y1="642.85712"
       x2="963.35712"
       y2="668.57141" />
    <linearGradient
       inkscape:collect="always"
       xlink:href="#linearGradient4968"
       id="linearGradient5652"
       gradientUnits="userSpaceOnUse"
       gradientTransform="matrix(1.1857598,0,0,1.2778594,117.44281,337.16873)"
       x1="899.50006"
       y1="642.85712"
       x2="963.35712"
       y2="668.57141" />
    <linearGradient
       inkscape:collect="always"
       xlink:href="#linearGradient5658"
       id="linearGradient5654"
       gradientUnits="userSpaceOnUse"
       gradientTransform="matrix(1.1857598,0,0,1.0299165,117.44281,475.15575)"
       x1="931.42859"
       y1="481.42856"
       x2="981.26337"
       y2="481.42859" />
    <linearGradient
       inkscape:collect="always"
       xlink:href="#linearGradient4994"
       id="linearGradient5656"
       gradientUnits="userSpaceOnUse"
       gradientTransform="matrix(1.0808967,0,0,1.1648515,221.7067,423.75705)"
       x1="925.33051"
       y1="469.78519"
       x2="979.99994"
       y2="469.78519" />
    <filter
       inkscape:collect="always"
       id="filter3401"
       x="-0.09509434"
       width="1.1901887"
       y="-0.15849057"
       height="1.3169811">
      <feGaussianBlur
         inkscape:collect="always"
         stdDeviation="0.69339623"
         id="feGaussianBlur3403" />
    </filter>
  </defs>
  <sodipodi:namedview
     id="base"
     pagecolor="#ffffff"
     bordercolor="#666666"
     borderopacity="1.0"
     gridtolerance="10000"
     guidetolerance="10"
     objecttolerance="10"
     inkscape:pageopacity="0.0"
     inkscape:pageshadow="2"
     inkscape:zoom="0.175"
     inkscape:cx="429.12892"
     inkscape:cy="213.84932"
     inkscape:document-units="px"
     inkscape:current-layer="layer1"
     width="1143px"
     height="1143px"
     inkscape:window-width="744"
     inkscape:window-height="573"
     inkscape:window-x="136"
     inkscape:window-y="15"
     showgrid="false">
    <inkscape:grid
       type="xygrid"
       id="grid2453"
       visible="true"
       enabled="true" />
  </sodipodi:namedview>
  <metadata
     id="metadata3153">
    <rdf:RDF>
      <cc:Work
         rdf:about="">
        <dc:format>image/svg+xml</dc:format>
        <dc:type
           rdf:resource="http://purl.org/dc/dcmitype/StillImage" />
      </cc:Work>
    </rdf:RDF>
  </metadata>
  <g
     inkscape:label="Layer 1"
     inkscape:groupmode="layer"
     id="layer1">
    <path
       style="fill:#000000;fill-opacity:1;stroke:#000000;stroke-width:0.50000000000000000;stroke-linecap:butt;stroke-linejoin:miter;stroke-miterlimit:4;stroke-dasharray:none;stroke-opacity:1;filter:url(#filter3401)"
       d="M 11,8 C 11,8 10,8 10,9 L 6,9 C 6,8 4,8 4,9 L 4,11 C 4,12 6,12 6,11 L 10,11 C 10,12 11,12 11,12 L 11,13 L 4,13 C 4,16 4,17 5,18 L 20,18 C 21,17 20.866069,14.977442 21,13 L 17,13 L 17,12 C 19,12 19,12 19,11 L 19,9 C 19,9 19,8 18,8 L 11,8 z"
       id="path3367"
       sodipodi:nodetypes="ccccccccccccccccccc" />
    <path
       sodipodi:nodetypes="ccccccccccccccccccc"
       id="path3233"
       d="M 10,7 C 10,7 9,7 9,8 L 5,8 C 5,7 3,7 3,8 L 3,10 C 3,11 5,11 5,10 L 9,10 C 9,11 11,11 11,11 L 11,12 L 3,12 C 3,15 3,16 4,17 L 19,17 C 20,16 19.866069,13.977442 20,12 L 16,12 L 16,11 C 18,11 18,11 18,10 L 18,8 C 18,8 18,7 17,7 L 10,7 z"
       style="fill:#aa8800;fill-opacity:1;stroke:#000000;stroke-width:0.5;stroke-linecap:butt;stroke-linejoin:miter;stroke-miterlimit:4;stroke-dasharray:none;stroke-opacity:1" />
    <path
       sodipodi:type="arc"
       style="opacity:1;fill:#dcb900;fill-opacity:1;stroke:#000000;stroke-width:0;stroke-linejoin:miter;stroke-miterlimit:4;stroke-dasharray:none;stroke-opacity:1"
       id="path2455"
       sodipodi:cx="9"
       sodipodi:cy="14"
       sodipodi:rx="1"
       sodipodi:ry="1"
       d="M 10,14 A 1,1 0 1 1 8,14 A 1,1 0 1 1 10,14 z"
       transform="matrix(1.5,0,0,1.5,-8,-6.5)" />
    <path
       d="M 10,14 A 1,1 0 1 1 8,14 A 1,1 0 1 1 10,14 z"
       sodipodi:ry="1"
       sodipodi:rx="1"
       sodipodi:cy="14"
       sodipodi:cx="9"
       id="path3227"
       style="opacity:1;fill:#dcb900;fill-opacity:1;stroke:#000000;stroke-width:0;stroke-linejoin:miter;stroke-miterlimit:4;stroke-dasharray:none;stroke-opacity:1"
       sodipodi:type="arc"
       transform="matrix(1.5,0,0,1.5,-4,-6.5)" />
    <path
       transform="matrix(1.5,0,0,1.5,0,-6.5)"
       sodipodi:type="arc"
       style="opacity:1;fill:#dcb900;fill-opacity:1;stroke:#000000;stroke-width:0;stroke-linejoin:miter;stroke-miterlimit:4;stroke-dasharray:none;stroke-opacity:1"
       id="path3229"
       sodipodi:cx="9"
       sodipodi:cy="14"
       sodipodi:rx="1"
       sodipodi:ry="1"
       d="M 10,14 A 1,1 0 1 1 8,14 A 1,1 0 1 1 10,14 z" />
    <path
       d="M 10,14 A 1,1 0 1 1 8,14 A 1,1 0 1 1 10,14 z"
       sodipodi:ry="1"
       sodipodi:rx="1"
       sodipodi:cy="14"
       sodipodi:cx="9"
       id="path3231"
       style="opacity:1;fill:#dcb900;fill-opacity:1;stroke:#000000;stroke-width:0;stroke-linejoin:miter;stroke-miterlimit:4;stroke-dasharray:none;stroke-opacity:1"
       sodipodi:type="arc"
       transform="matrix(1.5,0,0,1.5,4,-6.5)" />
    <rect
       style="opacity:0.55769231;fill:#000000;fill-opacity:1;stroke:#000000;stroke-width:0.50000000000000000;stroke-linecap:square;stroke-linejoin:miter;stroke-miterlimit:4;stroke-dasharray:none;stroke-opacity:1"
       id="rect3407"
       width="5"
       height="1"
       x="11"
       y="11"
       ry="0.5" />
  </g>
</svg>
