<?xml version="1.0" encoding="UTF-8" standalone="no"?>
<!-- Created with Inkscape (http://www.inkscape.org/) -->
<svg
   xmlns:dc="http://purl.org/dc/elements/1.1/"
   xmlns:cc="http://web.resource.org/cc/"
   xmlns:rdf="http://www.w3.org/1999/02/22-rdf-syntax-ns#"
   xmlns:svg="http://www.w3.org/2000/svg"
   xmlns="http://www.w3.org/2000/svg"
   xmlns:sodipodi="http://sodipodi.sourceforge.net/DTD/sodipodi-0.dtd"
   xmlns:inkscape="http://www.inkscape.org/namespaces/inkscape"
   width="1073.0323"
   height="700.26733"
   id="svg2"
   sodipodi:version="0.32"
   inkscape:version="0.45"
   sodipodi:docbase="C:\Documents and Settings\Games\My Documents\My Pictures"
   sodipodi:docname="bat.svg"
   inkscape:output_extension="org.inkscape.output.svg.inkscape"
   version="1.0"
   inkscape:export-filename="C:\Documents and Settings\Games\My Documents\My Pictures\bat.png"
   inkscape:export-xdpi="8.3749247"
   inkscape:export-ydpi="8.3749247"
   sodipodi:modified="TRUE">
  <defs
     id="defs4" />
  <sodipodi:namedview
     id="base"
     pagecolor="#ffffff"
     bordercolor="#666666"
     borderopacity="1.0"
     gridtolerance="10000"
     guidetolerance="10"
     objecttolerance="10"
     inkscape:pageopacity="0.0"
     inkscape:pageshadow="2"
     inkscape:zoom="0.35355339"
     inkscape:cx="813.28846"
     inkscape:cy="429.49455"
     inkscape:document-units="px"
     inkscape:current-layer="layer1"
     showguides="true"
     inkscape:guide-bbox="true"
     inkscape:window-width="744"
     inkscape:window-height="574"
     inkscape:window-x="434"
     inkscape:window-y="159" />
  <metadata
     id="metadata7">
    <rdf:RDF>
      <cc:Work
         rdf:about="">
        <dc:format>image/svg+xml</dc:format>
        <dc:type
           rdf:resource="http://purl.org/dc/dcmitype/StillImage" />
      </cc:Work>
    </rdf:RDF>
  </metadata>
  <g
     inkscape:label="Layer 1"
     inkscape:groupmode="layer"
     id="layer1"
     transform="translate(180.47721,-241.16823)">
    <g
       id="g3163"
       transform="translate(97.142857,91.428571)" />
    <g
       id="g3192"
       transform="matrix(0.72045,0.6935069,-0.6935069,0.72045,548.16289,-253.62002)"
       inkscape:export-filename="C:\Documents and Settings\Games\My Documents\My Pictures\bat.png"
       inkscape:export-xdpi="8.3930445"
       inkscape:export-ydpi="8.3930445"
       style="stroke:none">
      <g
         transform="translate(-31.428569,8.5714243)"
         id="g3181"
         style="stroke:none">
        <path
           transform="translate(97.142857,91.428571)"
           sodipodi:nodetypes="ccccccc"
           id="path2164"
           d="M 582.37867,77.397433 C 516.44415,136.54884 463.85438,228.79198 358.14701,180.16407 C 406.40311,324.40306 460.11379,484.40567 431.07474,573.30413 C 433.54503,625.95014 450.04221,675.11768 557.59137,698.11286 C 524.01119,601.34922 548.76396,549.18035 648.4374,554.28735 C 599.89151,471.20561 505.96693,379.6937 645.1694,331.49081 C 548.06873,253.45707 551.68841,166.61144 582.37867,77.397433 z "
           style="fill:#3e4837;fill-rule:evenodd;stroke:none;stroke-width:1px;stroke-linecap:butt;stroke-linejoin:miter;stroke-opacity:1" />
        <path
           transform="translate(97.142857,91.428571)"
           style="fill:#3e4837;fill-rule:evenodd;stroke:none;stroke-width:1px;stroke-linecap:butt;stroke-linejoin:miter;stroke-opacity:1"
           d="M -184.20837,826.8416 C -125.05696,760.90709 -32.813818,708.31732 -81.441729,602.60995 C 62.797262,650.86605 222.79987,704.57673 311.69833,675.53768 C 357.95759,691.89252 411.70586,711.17766 436.50706,802.05431 C 339.74342,768.47413 287.57455,793.2269 292.68155,892.9003 C 209.59981,844.3544 118.08791,750.42987 69.885012,889.6323 C -8.1487276,792.53167 -94.994359,796.15135 -184.20837,826.8416 z "
           id="path2168"
           sodipodi:nodetypes="ccccccc" />
        <path
           style="fill:#3e4837;fill-opacity:1;fill-rule:evenodd;stroke:none;stroke-width:1px;stroke-linecap:butt;stroke-linejoin:miter;stroke-opacity:1"
           d="M 405.32109,771.14914 L 415.8001,757.3924 C 425.47732,748.52312 395.63617,711.74008 351.19934,679.04068 L 402.34893,685.86309 C 393.74442,677.10353 399.39219,662.93621 406.792,653.07771 C 414.11679,646.62387 429.12475,639.9168 443.23481,644.66983 L 438.3435,597.76167 C 464.2187,626.23687 482.12297,668.63954 520.5831,667.51288 L 534.7088,654.43888 L 650.00261,776.07414 L 720.53316,970.20131 L 530.7085,893.33828 L 405.32109,771.14914 z "
           id="path3177"
           sodipodi:nodetypes="ccccccccccccc" />
      </g>
      <text
         transform="matrix(0.7029294,-0.7111956,0.6904895,0.7240085,0,0)"
         xml:space="preserve"
         style="font-size:246.90965271px;font-style:normal;font-weight:normal;fill:#e5ff80;fill-opacity:1;stroke:none;stroke-width:1px;stroke-linecap:butt;stroke-linejoin:miter;stroke-opacity:1;font-family:Beesknees ITC"
         x="-451.14325"
         y="894.66663"
         id="text2176"><tspan
           sodipodi:role="line"
           id="tspan2178"
           x="-451.14325"
           y="894.66663">b</tspan></text>
      <text
         id="text3169"
         y="951.68378"
         x="-256.07346"
         style="font-size:184.81851196px;font-style:normal;font-weight:normal;fill:#e5ff80;fill-opacity:1;stroke:none;stroke-width:1px;stroke-linecap:butt;stroke-linejoin:miter;stroke-opacity:1;font-family:Beesknees ITC"
         xml:space="preserve"
         transform="matrix(0.7029294,-0.7111956,0.6904895,0.7240085,0,0)"><tspan
           y="951.68378"
           x="-256.07346"
           id="tspan3171"
           sodipodi:role="line">A</tspan></text>
      <text
         transform="matrix(0.7029294,-0.7111956,0.6904895,0.7240085,0,0)"
         xml:space="preserve"
         style="font-size:192.76463318px;font-style:normal;font-weight:normal;fill:#e5ff80;fill-opacity:1;stroke:none;stroke-width:1px;stroke-linecap:butt;stroke-linejoin:miter;stroke-opacity:1;font-family:Beesknees ITC"
         x="-26.239927"
         y="901.91309"
         id="text3173"><tspan
           sodipodi:role="line"
           id="tspan3175"
           x="-26.239927"
           y="901.91309">T</tspan></text>
    </g>
    <path
       style="fill:#3e4837;fill-opacity:1;fill-rule:evenodd;stroke:none;stroke-width:1px;stroke-linecap:butt;stroke-linejoin:miter;stroke-opacity:1"
       d="M 156.66336,577.22945 C 188.17879,569.75191 180.80092,613.96697 158.12637,606.00175 L 156.66336,577.22945 z "
       id="path2169"
       sodipodi:nodetypes="ccc" />
    <path
       sodipodi:nodetypes="ccc"
       id="path3142"
       d="M 157.37047,621.17553 C 182.4042,615.23587 176.54372,650.35733 158.53258,644.0303 L 157.37047,621.17553 z "
       style="fill:#3e4837;fill-opacity:1;fill-rule:evenodd;stroke:none;stroke-width:1px;stroke-linecap:butt;stroke-linejoin:miter;stroke-opacity:1" />
    <path
       style="fill:#3e4837;fill-rule:evenodd;stroke:none;stroke-width:1px;stroke-linecap:butt;stroke-linejoin:miter;stroke-opacity:1;fill-opacity:1"
       d="M 514.77374,465.50788 L 520.60737,438.10749 L 546.23999,430.85965 L 560.02857,467.6292 L 514.77374,465.50788 z "
       id="path3144"
       transform="translate(-180.47721,241.16823)"
       sodipodi:nodetypes="ccccc" />
    <path
       style="fill:#e5ff80;fill-opacity:1;fill-rule:evenodd;stroke:none;stroke-width:1px;stroke-linecap:butt;stroke-linejoin:miter;stroke-opacity:1"
       d="M 334.29653,675.19945 L 388.21342,685.80605 L 388.21342,697.82687 L 333.41264,687.22026 L 334.29653,675.19945 z "
       id="path3146" />
  </g>
</svg>
